<svg xmlns="http://www.w3.org/2000/svg" width="10.025" height="10.025" viewBox="0 0 10.025 10.025"><defs><style>.a{fill:#9daca9;}</style></defs><path class="a" d="M20.386,19l-2.82,2.82-.94-.94L16,21.506l1.566,1.566,3.446-3.446Z" transform="translate(-10.987 -13.048)"/><path class="a" d="M4.386,7.519H7.519V6.392a6.016,6.016,0,0,0-2.506-.727V5.148A2.8,2.8,0,0,0,6.266,2.82c0-1.557,0-2.82-1.88-2.82s-1.88,1.262-1.88,2.82A2.8,2.8,0,0,0,3.759,5.148v.517C1.634,5.838,0,6.883,0,8.145H4.386V7.518Z"/></svg>