<svg xmlns="http://www.w3.org/2000/svg" width="10" height="8.136" viewBox="0 0 10 8.136"><defs><style>.a{fill:#5fd36c;}</style></defs><path class="a" d="M11.419,5.477a2.649,2.649,0,0,0-3.52,0l-.66.605-.661-.605a2.648,2.648,0,0,0-3.519,0,2.419,2.419,0,0,0,0,3.631l4.18,3.836,4.18-3.836a2.42,2.42,0,0,0,0-3.631ZM10.8,8.511l-3.56,3.322L3.678,8.511a1.587,1.587,0,0,1-.5-1.217,1.42,1.42,0,0,1,.44-1.162,1.761,1.761,0,0,1,1.2-.452,1.877,1.877,0,0,1,1.2.569L7.239,7.31l1.22-1.062a1.878,1.878,0,0,1,1.2-.569,1.763,1.763,0,0,1,1.2.452A1.42,1.42,0,0,1,11.3,7.293,1.586,1.586,0,0,1,10.8,8.511Z" transform="translate(-2.239 -4.808)"/></svg>