<svg xmlns="http://www.w3.org/2000/svg" width="11.78" height="13.59" viewBox="0 0 11.78 13.59"><defs><style>.a{fill:#9daca9;}</style></defs><path class="a" d="M1979.919-2238.161v1.616h-2.051v-1.616a.338.338,0,0,1,.338-.338h1.376A.338.338,0,0,1,1979.919-2238.161Zm-1.026,9.781c-5.646-1.927-6.141-5.166-5.813-11.4l5.813-2.194,5.813,2.194C1985.034-2233.546,1984.539-2230.306,1978.893-2228.38Zm3.27-7.151a1.014,1.014,0,0,0-1.013-1.014h-.088v-1.616a1.483,1.483,0,0,0-1.481-1.482h-1.376a1.483,1.483,0,0,0-1.482,1.482v1.616h-.021a1.015,1.015,0,0,0-1.014,1.014v2.771a1.015,1.015,0,0,0,1.014,1.014h4.447a1.014,1.014,0,0,0,1.013-1.014Zm-3.27,0a.693.693,0,0,0-.693.693.691.691,0,0,0,.329.59v1.056a.364.364,0,0,0,.364.363.364.364,0,0,0,.364-.363v-1.056a.692.692,0,0,0,.329-.59A.693.693,0,0,0,1978.893-2235.531Z" transform="translate(-1973.003 2241.97)"/></svg>