<svg xmlns="http://www.w3.org/2000/svg" width="91.244" height="91.244" viewBox="0 0 91.244 91.244"><defs><style>.a{fill:#9daca9;}.b{fill:#fff;}</style></defs><rect class="a" width="91.244" height="91.244" rx="45.622"/><g transform="translate(28.291 28.291)"><path class="b" d="M21.664,23.107V20.218a7.543,7.543,0,0,0,2.7-4.263c.511-.039,1.314-.508,1.551-2.361a1.689,1.689,0,0,0-.685-1.73A7.642,7.642,0,0,0,26,8.666c0-3.507-1.376-6.5-4.333-6.5,0,0-1.027-2.166-4.333-2.166C11.2,0,8.666,3.93,8.666,8.666a8.608,8.608,0,0,0,.763,3.2,1.691,1.691,0,0,0-.685,1.73c.237,1.853,1.04,2.322,1.551,2.361A7.543,7.543,0,0,0,13,20.218v2.889C11.554,27.439,0,24.551,0,34.661H34.662C34.662,24.551,23.108,27.439,21.664,23.107Z" transform="translate(0 0)"/></g></svg>