<svg xmlns="http://www.w3.org/2000/svg" xmlns:xlink="http://www.w3.org/1999/xlink" width="189.444" height="22" viewBox="0 0 189.444 22"><defs><style>.a{fill:#5fd36c;}.b{clip-path:url(#a);}.c{clip-path:url(#b);}.d{clip-path:url(#c);}.e{clip-path:url(#d);}</style><clipPath id="a"><path class="a" d="M6.72,19.556v-8.92H9.772l.458-3.477H6.72V4.939c0-1.006.284-1.692,1.757-1.692h1.876V.136A25.924,25.924,0,0,0,7.619,0,4.229,4.229,0,0,0,3.06,4.595V7.159H0v3.477H3.06v8.92Z"/></clipPath><clipPath id="b"><path class="a" d="M20.778,2a8.512,8.512,0,0,1-2.447.671A4.28,4.28,0,0,0,20.2.312,8.593,8.593,0,0,1,17.5,1.346a4.266,4.266,0,0,0-7.263,3.886A12.1,12.1,0,0,1,1.448.779,4.267,4.267,0,0,0,2.767,6.468,4.263,4.263,0,0,1,.836,5.934v.053a4.267,4.267,0,0,0,3.419,4.179,4.317,4.317,0,0,1-1.123.149,4.091,4.091,0,0,1-.8-.079A4.265,4.265,0,0,0,6.31,13.2a8.552,8.552,0,0,1-5.293,1.822A9.059,9.059,0,0,1,0,14.96a12.048,12.048,0,0,0,6.533,1.918A12.043,12.043,0,0,0,18.66,4.751L18.646,4.2A8.512,8.512,0,0,0,20.778,2Z"/></clipPath><clipPath id="c"><path class="a" d="M8.556,6.844v3.422H13.4A5.134,5.134,0,1,1,8.556,3.422,5.057,5.057,0,0,1,11.88,4.661l2.248-2.58A8.479,8.479,0,0,0,8.556,0a8.556,8.556,0,1,0,8.556,8.556V6.844Z"/></clipPath><clipPath id="d"><path class="a" d="M15.929,22H6.071A6.078,6.078,0,0,1,0,15.929V6.071A6.078,6.078,0,0,1,6.071,0h9.858A6.078,6.078,0,0,1,22,6.071v9.858A6.078,6.078,0,0,1,15.929,22ZM6.071,1.951A4.124,4.124,0,0,0,1.951,6.071v9.858a4.124,4.124,0,0,0,4.119,4.12h9.858a4.124,4.124,0,0,0,4.12-4.12V6.071a4.124,4.124,0,0,0-4.12-4.119ZM11,16.762A5.762,5.762,0,1,1,16.762,11,5.768,5.768,0,0,1,11,16.762Zm0-9.54A3.778,3.778,0,1,0,14.777,11,3.782,3.782,0,0,0,11,7.222Z"/></clipPath></defs><g transform="translate(-1061.5 -1592)"><g transform="translate(1061.5 1592)"><g transform="translate(61.111 1.222)"><path class="a" d="M6.72,19.556v-8.92H9.772l.458-3.477H6.72V4.939c0-1.006.284-1.692,1.757-1.692h1.876V.136A25.924,25.924,0,0,0,7.619,0,4.229,4.229,0,0,0,3.06,4.595V7.159H0v3.477H3.06v8.92Z"/></g><g transform="translate(0 2.444)"><path class="a" d="M20.778,2a8.512,8.512,0,0,1-2.447.671A4.28,4.28,0,0,0,20.2.312,8.593,8.593,0,0,1,17.5,1.346a4.266,4.266,0,0,0-7.263,3.886A12.1,12.1,0,0,1,1.448.779,4.267,4.267,0,0,0,2.767,6.468,4.263,4.263,0,0,1,.836,5.934v.053a4.267,4.267,0,0,0,3.419,4.179,4.317,4.317,0,0,1-1.123.149,4.091,4.091,0,0,1-.8-.079A4.265,4.265,0,0,0,6.31,13.2a8.552,8.552,0,0,1-5.293,1.822A9.059,9.059,0,0,1,0,14.96a12.048,12.048,0,0,0,6.533,1.918A12.043,12.043,0,0,0,18.66,4.751L18.646,4.2A8.512,8.512,0,0,0,20.778,2Z"/></g><g transform="translate(113.667 2.444)"><path class="a" d="M8.556,6.844v3.422H13.4A5.134,5.134,0,1,1,8.556,3.422,5.057,5.057,0,0,1,11.88,4.661l2.248-2.58A8.479,8.479,0,0,0,8.556,0a8.556,8.556,0,1,0,8.556,8.556V6.844Z"/></g><g transform="translate(167.444 0)"><path class="a" d="M15.929,22H6.071A6.078,6.078,0,0,1,0,15.929V6.071A6.078,6.078,0,0,1,6.071,0h9.858A6.078,6.078,0,0,1,22,6.071v9.858A6.078,6.078,0,0,1,15.929,22ZM6.071,1.951A4.124,4.124,0,0,0,1.951,6.071v9.858a4.124,4.124,0,0,0,4.119,4.12h9.858a4.124,4.124,0,0,0,4.12-4.12V6.071a4.124,4.124,0,0,0-4.12-4.119ZM11,16.762A5.762,5.762,0,1,1,16.762,11,5.768,5.768,0,0,1,11,16.762Zm0-9.54A3.778,3.778,0,1,0,14.777,11,3.782,3.782,0,0,0,11,7.222Z"/></g></g></g></svg>