<svg xmlns="http://www.w3.org/2000/svg" xmlns:xlink="http://www.w3.org/1999/xlink" width="36" height="36" viewBox="0 0 36 36"><defs><style>.a,.b{fill:#707070;}.a{clip-rule:evenodd;}.c{fill:#fff;}.d{clip-path:url(#a);}.e{clip-path:url(#b);}</style><clipPath id="a"><path class="a" d="M2.6-13.868a1.165,1.165,0,0,0-1.591,0,1.036,1.036,0,0,0,0,1.515L6.966-6.682,1.011-1.011A1.036,1.036,0,0,0,1.011.5,1.165,1.165,0,0,0,2.6.5l6.75-6.429a1.036,1.036,0,0,0,0-1.515Z" transform="translate(-0.682 14.182)"/></clipPath><clipPath id="b"><path class="b" d="M-273,3444.483H1424.143V-3939H-273Z" transform="translate(273 3939)"/></clipPath></defs><g transform="translate(-134)"><g transform="translate(134)"><rect class="c" width="36" height="36" rx="18"/><g transform="translate(14.5 11)"><g class="d"><g class="e" transform="translate(-322.554 -4405.416)"><path class="b" d="M-4.318-19.182H16.468V7.043H-4.318Z" transform="translate(320.979 4418.986)"/></g></g></g></g></g></svg>